<svg version="1.1" id="Layer_1" xmlns="http://www.w3.org/2000/svg" xmlns:xlink="http://www.w3.org/1999/xlink" x="0px" y="0px"
	 width="100%" viewBox="0 0 3931 2798" enable-background="new 0 0 3931 2798" xml:space="preserve">
<path fill="#FFFFFF" opacity="1.000000" stroke="none" 
	d="
M1.999999,1320.000000 
	C2.000000,880.781433 2.000000,441.562897 2.000000,2.000000 
	C624.056030,2.000000 1246.112061,2.000000 1868.872925,2.653403 
	C1859.074341,8.528211 1855.472534,17.189461 1855.552246,28.637316 
	C1855.840210,69.956825 1855.675659,111.279579 1855.647339,152.601074 
	C1855.644897,156.114639 1855.385132,159.628021 1855.273804,162.417145 
	C1824.611694,164.892242 1795.141602,166.648346 1765.821777,169.802521 
	C1732.529541,173.384048 1699.176392,177.083069 1666.200439,182.765228 
	C1614.186157,191.727936 1562.565552,202.997818 1511.908691,217.923874 
	C1473.359009,229.282532 1434.814453,240.999893 1397.145508,254.931274 
	C1327.561890,280.665802 1260.051514,311.245361 1194.590332,346.323151 
	C1121.725952,385.368042 1052.127197,429.531433 985.532471,478.427246 
	C917.356445,528.484192 853.019043,583.171143 792.550720,642.272339 
	C765.198120,669.006470 739.445923,697.377991 712.458496,725.449585 
	C711.787170,726.147949 711.455627,726.435913 711.497131,726.652466 
	C711.593445,727.155090 711.869812,727.623169 711.618347,727.809998 
	C711.168152,728.074768 711.172791,728.634766 711.177490,729.194824 
	C711.445007,728.788879 711.712585,728.382935 712.539062,728.046997 
	C713.522034,727.535095 713.946106,726.953247 715.054199,726.257568 
	C762.159241,695.600403 808.164062,664.400269 855.090637,634.654297 
	C944.774292,577.805237 1037.089478,525.589111 1132.946045,479.734863 
	C1179.143066,457.635956 1225.904175,436.880005 1273.534058,418.076324 
	C1354.314331,386.185333 1436.738525,359.540222 1521.257446,339.335938 
	C1603.693970,319.629425 1687.119263,306.123413 1771.481689,298.503235 
	C1799.237793,295.996124 1827.143433,294.150146 1854.996582,293.919983 
	C1910.197510,293.463745 1965.460815,292.124603 2020.546021,297.654877 
	C2054.187500,301.032318 2087.875488,303.984558 2121.476074,307.727203 
	C2167.012695,312.799438 2212.049561,321.051819 2256.915527,330.255676 
	C2330.860352,345.424835 2403.663818,364.947327 2475.401611,388.349426 
	C2546.221191,411.452118 2615.712891,438.098633 2683.946289,468.031219 
	C2739.396484,492.355957 2794.039062,518.359924 2847.585449,546.612976 
	C2903.485352,576.107849 2958.611328,607.022949 3012.087402,640.737305 
	C3050.361328,664.867371 3088.393066,689.415649 3125.914062,714.695984 
	C3158.737061,736.810852 3190.696777,760.206726 3223.503906,783.447632 
	C3224.543457,783.785767 3225.116943,783.712952 3225.690186,783.640198 
	C3225.251709,782.971619 3224.813232,782.303101 3224.262695,780.960266 
	C3187.148682,737.459412 3148.622314,696.078674 3107.051514,657.623535 
	C3084.595459,636.850586 3062.270264,615.907227 3039.178955,595.855164 
	C2960.867432,527.851379 2877.027832,467.402466 2788.204346,413.864044 
	C2717.728027,371.384521 2644.622803,334.020081 2569.094971,301.377808 
	C2484.410645,264.778137 2397.293945,235.270905 2307.968994,212.310699 
	C2260.997803,200.237152 2213.576172,190.047058 2165.650879,182.661407 
	C2128.299316,176.905289 2090.710938,172.670197 2053.201660,167.966156 
	C2042.462280,166.619293 2031.632202,165.993118 2020.334473,164.991333 
	C2020.334473,160.451782 2020.334595,156.823227 2020.334595,153.194672 
	C2020.334595,113.196495 2020.124756,73.196579 2020.456543,33.201157 
	C2020.562256,20.459658 2018.543457,9.416166 2006.076050,2.966483 
	C2005.924561,2.888105 2006.019897,2.332720 2006.000000,1.999998 
	C2648.520996,2.000000 3291.042236,2.000000 3934.000000,2.000000 
	C3934.000000,583.389343 3934.000000,1164.778809 3933.405518,1747.381836 
	C3891.162109,1790.755981 3848.740723,1832.107910 3804.189209,1871.221924 
	C3772.923340,1898.671875 3741.105957,1925.440186 3705.740479,1947.586792 
	C3661.846924,1975.073853 3613.995605,1991.249878 3562.428711,1995.490356 
	C3533.861328,1997.839355 3505.353516,1995.870728 3477.102783,1990.313232 
	C3413.478271,1977.797241 3363.730957,1944.517334 3327.498291,1890.941528 
	C3300.839355,1851.521362 3285.160400,1807.507446 3274.202637,1761.589722 
	C3273.068848,1756.838623 3272.332275,1751.992676 3271.342041,1746.830566 
	C3274.539795,1745.642578 3276.950928,1744.640015 3279.428467,1743.842773 
	C3311.706055,1733.456787 3344.134766,1723.518555 3376.248291,1712.648560 
	C3442.801758,1690.120728 3507.873047,1663.938599 3570.526855,1631.975342 
	C3630.640869,1601.308105 3687.643311,1566.086548 3737.149658,1519.629761 
	C3763.054199,1495.320679 3785.490723,1468.319336 3803.305664,1437.578613 
	C3807.511719,1430.320557 3810.862305,1422.566772 3814.606201,1415.040894 
	C3811.318359,1414.509399 3809.527344,1415.083862 3807.844482,1415.885620 
	C3769.698242,1434.057129 3731.540283,1452.205322 3693.432373,1470.457153 
	C3643.617432,1494.316162 3593.838379,1518.249512 3544.053955,1542.172119 
	C3492.169189,1567.104004 3440.300537,1592.069458 3388.417480,1617.004761 
	C3338.034424,1641.218994 3287.629883,1665.388672 3237.256592,1689.623413 
	C3181.183105,1716.600586 3125.145020,1743.651367 3069.068848,1770.623169 
	C3049.579590,1779.997070 3029.995117,1789.173096 3010.504883,1798.545410 
	C2994.965820,1806.017578 2979.504639,1813.651489 2963.545898,1821.439453 
	C2964.285645,1831.533325 2965.158691,1841.080078 2965.652344,1850.646240 
	C2966.889160,1874.610718 2970.894043,1898.159546 2976.227051,1921.492188 
	C2993.947021,1999.018066 3031.783936,2064.960938 3090.931396,2118.246582 
	C3154.769287,2175.757568 3230.976807,2203.879150 3315.757324,2209.455566 
	C3359.251953,2212.316406 3402.839111,2211.163818 3446.082275,2204.103027 
	C3477.637207,2198.951660 3508.607178,2191.578613 3538.922119,2181.395752 
	C3590.748291,2163.987549 3638.218750,2138.027100 3683.493164,2107.793701 
	C3762.056152,2055.331055 3833.166992,1993.759155 3901.612305,1928.948242 
	C3912.454834,1918.681396 3923.206299,1908.318481 3934.000000,1898.000000 
	C3934.000000,2198.491211 3934.000000,2498.982178 3934.000000,2800.000000 
	C3759.944336,2800.000000 3585.887939,2800.000000 3411.299805,2799.288086 
	C3419.569824,2796.946533 3428.541504,2795.931885 3437.140137,2793.563721 
	C3457.062744,2788.077148 3474.900635,2778.653320 3488.409912,2762.554932 
	C3509.247314,2737.724121 3513.172119,2708.885010 3506.832275,2678.189697 
	C3501.787354,2653.763916 3486.212891,2637.021484 3465.199951,2624.812500 
	C3442.533691,2611.643555 3417.638916,2604.537842 3392.446777,2598.270996 
	C3376.320312,2594.259521 3360.218994,2590.146484 3345.390381,2582.341309 
	C3336.698730,2577.766602 3329.213379,2571.887695 3325.086670,2562.551025 
	C3314.971191,2539.666504 3325.734619,2513.100586 3349.018066,2503.933838 
	C3367.246582,2496.757324 3386.028076,2496.638428 3404.822510,2500.843262 
	C3427.545166,2505.926270 3442.348389,2519.773438 3448.578125,2542.442627 
	C3449.186768,2544.656494 3450.069092,2546.794922 3451.070801,2549.677002 
	C3467.763916,2549.672607 3484.514160,2549.732422 3501.789795,2549.634766 
	C3501.037598,2544.869873 3500.708252,2541.595703 3499.988525,2538.409668 
	C3493.399658,2509.243896 3477.972412,2486.447510 3450.683838,2473.209961 
	C3409.936035,2453.442871 3367.687500,2452.883789 3325.871094,2468.286621 
	C3291.229004,2481.046875 3272.027832,2507.312500 3269.804932,2544.646973 
	C3268.011963,2574.757568 3278.125488,2599.844727 3304.615967,2615.969482 
	C3316.444824,2623.169922 3329.285889,2629.202148 3342.373779,2633.718750 
	C3360.850586,2640.094971 3380.027588,2644.418213 3398.818359,2649.916748 
	C3411.916504,2653.749023 3424.619629,2658.645020 3436.126953,2666.203125 
	C3452.564209,2676.999023 3458.830566,2693.026611 3457.402100,2711.700195 
	C3455.863770,2731.808105 3445.765869,2746.834229 3426.208252,2754.065674 
	C3404.349609,2762.147949 3382.081543,2762.096191 3359.607178,2756.674316 
	C3337.298828,2751.292236 3321.861328,2737.873535 3312.804688,2716.998779 
	C3310.712891,2712.177002 3309.331299,2707.046631 3307.692627,2702.262207 
	C3290.827148,2702.262207 3274.312744,2702.262207 3257.163818,2702.262207 
	C3260.604736,2728.922363 3270.738770,2751.483154 3290.228760,2769.278564 
	C3306.105225,2783.774902 3325.245361,2791.885986 3346.103760,2796.291016 
	C3351.426270,2797.415283 3356.702393,2798.757812 3362.000000,2800.000000 
	C2828.610596,2800.000000 2295.221191,2800.000000 1761.334473,2799.303467 
	C1767.399170,2797.645020 1774.067505,2797.138916 1780.504395,2795.639893 
	C1804.698120,2790.006104 1826.337891,2779.751709 1842.093994,2759.658936 
	C1860.453003,2736.246826 1863.174194,2709.404297 1858.823486,2681.140625 
	C1856.357910,2665.123291 1848.742676,2651.870850 1837.204102,2640.535400 
	C1826.080688,2629.607422 1812.884277,2622.109619 1798.862305,2615.825439 
	C1778.448486,2606.677002 1756.736938,2601.708008 1735.214966,2596.080078 
	C1720.440796,2592.216309 1705.733521,2588.047119 1692.472656,2580.002930 
	C1683.525146,2574.575195 1676.482422,2567.238770 1674.678223,2557.001709 
	C1670.680420,2534.317383 1675.321777,2512.591309 1703.226074,2502.791504 
	C1721.246216,2496.462891 1739.774414,2496.786377 1758.172852,2501.327637 
	C1780.552734,2506.852051 1794.397339,2521.179932 1800.389648,2543.320312 
	C1800.971069,2545.468018 1801.937256,2547.511475 1802.526367,2549.075684 
	C1819.432373,2549.075684 1835.629517,2549.075684 1852.524658,2549.075684 
	C1852.177246,2545.135986 1852.278076,2541.773682 1851.540283,2538.607178 
	C1843.946045,2506.012939 1825.535889,2482.020264 1794.189209,2469.353760 
	C1757.326660,2454.458496 1719.620850,2454.640137 1682.026123,2466.259033 
	C1665.989136,2471.215332 1652.173340,2480.266602 1640.964600,2493.318115 
	C1621.755737,2515.684326 1618.884155,2541.764893 1623.023193,2569.325195 
	C1625.147705,2583.472412 1632.253662,2595.360352 1642.700317,2605.415283 
	C1651.970947,2614.338135 1662.703003,2620.738281 1674.181274,2626.152344 
	C1693.836182,2635.423340 1714.813599,2640.545654 1735.730835,2645.906006 
	C1752.814941,2650.284424 1769.724243,2655.249512 1784.892212,2664.661377 
	C1794.439941,2670.585449 1802.659790,2677.980225 1805.776489,2689.148926 
	C1813.885254,2718.205566 1805.169189,2746.091797 1772.854614,2755.802490 
	C1752.029907,2762.060547 1730.980713,2761.966064 1709.964355,2756.461914 
	C1687.877930,2750.677734 1672.313599,2737.413330 1663.964966,2716.014404 
	C1662.180908,2711.441650 1660.686523,2706.755615 1658.892944,2701.649902 
	C1650.308716,2701.649902 1642.001831,2701.411377 1633.714966,2701.716064 
	C1625.322021,2702.024902 1616.765503,2700.341797 1608.438232,2702.774414 
	C1610.887329,2721.218750 1616.747925,2737.698486 1626.976318,2752.398438 
	C1643.382324,2775.977051 1666.621216,2789.207520 1694.123047,2795.670410 
	C1700.723389,2797.221436 1707.373047,2798.562256 1714.000000,2800.000000 
	C1143.484497,2800.000000 572.968994,2800.000000 2.000000,2800.000000 
	C2.000000,2323.944092 2.000000,1847.887939 2.646736,1371.378906 
	C4.090517,1375.804199 5.131535,1380.656860 5.644099,1385.564819 
	C8.479605,1412.715210 16.580132,1438.241577 29.416700,1462.248535 
	C39.676159,1481.435791 51.639668,1499.408447 68.780182,1513.312500 
	C91.151604,1531.459961 116.633087,1534.857300 142.624954,1519.108765 
	C163.162231,1506.665283 179.272308,1489.539795 194.288651,1471.252808 
	C204.244507,1459.128540 212.942368,1446.172974 218.364548,1431.232178 
	C224.940491,1413.112427 224.840820,1395.888428 211.522034,1380.666870 
	C201.888733,1369.657227 192.021530,1358.818115 181.729446,1348.427124 
	C165.127487,1331.665527 154.201462,1311.808228 148.191925,1289.192139 
	C139.952454,1258.183838 139.868484,1226.684814 143.851669,1195.133179 
	C147.974838,1162.472778 158.366577,1131.744263 173.704376,1102.619385 
	C188.383194,1074.745728 206.588577,1049.331055 228.230301,1026.593506 
	C258.933136,994.335876 293.968689,969.398682 340.218384,965.033630 
	C365.393677,962.657532 388.525665,967.565735 408.685272,983.439819 
	C425.979309,997.057556 436.818695,1015.257446 443.947968,1035.660767 
	C457.980469,1075.820557 458.393585,1117.267944 453.249084,1158.801147 
	C448.262726,1199.057373 439.155396,1238.549316 428.647064,1277.754761 
	C411.498627,1341.733765 390.449554,1404.434692 368.385773,1466.832642 
	C352.090912,1512.915527 335.485809,1558.897949 319.932373,1605.231689 
	C300.348816,1663.571411 283.779663,1722.809570 273.239014,1783.503052 
	C268.476776,1810.924438 264.823761,1838.637817 262.602478,1866.373535 
	C260.346802,1894.538452 262.126556,1922.801025 265.621948,1950.929565 
	C271.729340,2000.077393 285.886932,2046.516113 311.774933,2088.933838 
	C340.120209,2135.377930 377.603058,2172.436035 426.561035,2196.979248 
	C458.738586,2213.110107 493.035095,2221.490234 528.937805,2224.509766 
	C556.974792,2226.867432 584.780823,2225.994629 612.346924,2221.251221 
	C664.937012,2212.201660 712.775696,2191.151123 757.114624,2161.779541 
	C802.062500,2132.004395 841.480347,2096.016113 877.574768,2056.078125 
	C909.329590,2020.941528 938.368286,1983.749634 964.780273,1944.505493 
	C998.284241,1894.723755 1027.593872,1842.540894 1053.675659,1788.489258 
	C1082.051880,1729.682983 1106.309204,1669.206055 1127.620361,1607.554077 
	C1151.642334,1538.060303 1171.723389,1467.464722 1186.634399,1395.374268 
	C1199.844604,1331.506836 1208.334106,1267.080811 1211.496582,1202.020020 
	C1213.531372,1160.160645 1212.393921,1118.304199 1206.416260,1076.643433 
	C1199.389526,1027.670288 1186.924316,980.247620 1167.703491,934.673889 
	C1161.238892,919.346008 1153.928101,904.375732 1142.690674,891.721436 
	C1133.705933,881.604004 1123.022217,877.141541 1109.686890,881.285278 
	C1100.812012,884.043030 1091.793457,886.570374 1083.286133,890.237976 
	C1051.717163,903.847900 1022.210999,921.317932 993.266846,939.727417 
	C976.080566,950.658386 960.253845,963.301880 946.251099,978.223633 
	C931.317444,994.137451 925.185181,1011.835388 933.577209,1033.026123 
	C935.902649,1038.898193 937.789124,1044.982910 940.567932,1050.630005 
	C953.053101,1076.001343 966.075928,1101.110718 978.368347,1126.573608 
	C1000.694092,1172.819824 1018.571472,1220.764038 1031.268921,1270.546509 
	C1043.555664,1318.718140 1050.483276,1367.651367 1049.572266,1417.450562 
	C1049.214600,1437.013672 1047.530518,1456.556396 1046.301514,1476.098877 
	C1044.087280,1511.303223 1038.648682,1546.094482 1031.247314,1580.513184 
	C1009.932251,1679.635132 975.568604,1774.070190 927.493286,1863.381714 
	C891.624817,1930.015991 848.273743,1991.085327 792.601074,2042.932251 
	C767.336304,2066.460938 739.994629,2086.861572 708.612427,2101.468262 
	C682.209900,2113.757324 654.352966,2119.927246 625.264404,2117.487793 
	C589.297424,2114.471436 560.225281,2097.833740 537.193970,2070.132812 
	C513.116150,2041.173340 503.600189,2007.154541 502.412323,1970.389160 
	C501.637756,1946.415161 504.728790,1922.606079 508.716858,1899.039429 
	C517.665344,1846.160522 531.812195,1794.529297 549.068237,1743.828857 
	C569.639404,1683.388306 591.452881,1623.371948 612.383850,1563.052368 
	C638.994141,1486.365845 663.374878,1409.062988 675.045959,1328.368164 
	C679.706970,1296.140991 683.257568,1263.811157 683.594116,1231.231812 
	C683.744934,1216.625244 682.691040,1202.009155 682.332520,1187.393677 
	C681.595886,1157.365356 676.963501,1127.884033 669.817444,1098.780273 
	C655.050720,1038.639404 627.794373,985.536987 582.167419,942.621704 
	C558.016602,919.906250 530.440308,903.044189 499.202545,892.244995 
	C460.548920,878.882202 420.778717,876.197388 380.190643,879.480408 
	C346.672455,882.191589 314.623413,890.112854 283.876617,903.347229 
	C229.318939,926.830505 184.280899,963.126709 145.487625,1007.575500 
	C112.976738,1044.826050 84.871788,1085.114868 61.710663,1128.878784 
	C30.040346,1188.721313 10.381866,1252.035156 4.677274,1319.724854 
	C3.426350,1319.844604 2.713174,1319.922363 1.999999,1320.000000 
M2646.142090,2077.491211 
	C2619.836182,2073.647461 2599.976807,2059.359375 2584.566406,2038.536255 
	C2574.207764,2024.539551 2567.047363,2008.791382 2561.711182,1992.178467 
	C2548.113525,1949.847656 2548.627686,1906.269287 2550.518799,1862.674561 
	C2551.741211,1834.499878 2554.492676,1806.394165 2556.141357,1778.233032 
	C2556.435791,1773.200073 2557.833252,1769.631348 2561.256348,1765.956787 
	C2571.905762,1754.524536 2582.056152,1742.629028 2592.491455,1730.995361 
	C2634.733398,1683.903320 2674.449951,1634.774658 2711.816895,1583.727417 
	C2750.413086,1531.000610 2785.878174,1476.285034 2816.437500,1418.499878 
	C2852.531982,1350.249023 2880.177979,1278.776123 2897.377930,1203.375366 
	C2910.656738,1145.165771 2916.854980,1086.159668 2917.616211,1026.540649 
	C2917.734619,1017.267090 2916.463623,1007.982666 2916.368164,998.697815 
	C2916.182129,980.644714 2913.576904,962.878052 2909.371094,945.445068 
	C2905.151367,927.953491 2899.393555,910.884155 2888.117920,896.323853 
	C2879.083984,884.658508 2868.111328,876.609497 2852.480225,878.421936 
	C2846.930908,879.065430 2841.349365,880.524170 2836.095947,882.460571 
	C2760.267090,910.410339 2684.502197,938.533508 2608.677979,966.496338 
	C2603.963379,968.234985 2601.080811,971.051392 2598.888184,975.545166 
	C2588.527100,996.777649 2577.479736,1017.680969 2567.390381,1039.038452 
	C2549.913086,1076.034424 2532.289307,1112.985229 2515.922363,1150.476685 
	C2474.503418,1245.355103 2438.594727,1342.320068 2407.156738,1440.970337 
	C2385.038574,1510.375244 2365.031250,1580.320557 2348.996582,1651.402344 
	C2330.988037,1731.234497 2318.071533,1811.780762 2313.809082,1893.587891 
	C2313.583496,1897.916382 2312.328125,1900.775391 2309.070801,1903.798706 
	C2288.337402,1923.041748 2268.051025,1942.766724 2247.329346,1962.022705 
	C2220.267822,1987.170410 2192.439697,2011.453613 2162.278564,2032.869385 
	C2131.276367,2054.882324 2098.024658,2071.979980 2059.692871,2076.910645 
	C2035.113159,2080.072021 2011.890137,2076.622314 1991.600586,2061.045654 
	C1974.528198,2047.938721 1962.940796,2030.715088 1954.182007,2011.317139 
	C1939.374390,1978.522705 1935.713013,1943.544434 1934.485229,1908.237183 
	C1933.955322,1892.999268 1935.151367,1877.674805 1936.057251,1862.418945 
	C1937.749268,1833.927368 1939.879150,1805.462036 1941.621582,1776.973022 
	C1941.882446,1772.708252 1943.207764,1769.473389 1946.116943,1766.335205 
	C1954.704468,1757.072021 1962.946777,1747.490112 1971.396606,1738.097900 
	C2019.950195,1684.128418 2065.593018,1627.817627 2107.829346,1568.757202 
	C2146.426270,1514.785156 2181.588135,1458.686646 2211.446533,1399.401367 
	C2233.626221,1355.362427 2252.064697,1309.770386 2266.690430,1262.611328 
	C2286.278076,1199.452026 2297.410156,1134.799438 2301.520508,1068.931641 
	C2302.805420,1048.344116 2302.983643,1027.591187 2302.035889,1006.989075 
	C2301.184570,988.477356 2298.933105,969.922852 2295.760254,951.654480 
	C2292.446289,932.572388 2286.162109,914.205139 2274.634766,898.239380 
	C2265.688965,885.849243 2254.701904,876.458252 2237.992676,878.411438 
	C2232.763428,879.022644 2227.488281,880.311646 2222.544922,882.133301 
	C2147.650146,909.731018 2072.854492,937.598083 1997.882935,964.984741 
	C1989.966187,967.876709 1985.304443,972.419312 1981.801270,979.733093 
	C1961.384277,1022.358093 1940.137207,1064.592896 1920.197876,1107.437622 
	C1892.117065,1167.776123 1866.743164,1229.311035 1844.108276,1291.883423 
	C1824.428589,1346.286377 1805.575562,1401.019775 1787.847290,1456.086914 
	C1774.000366,1499.098389 1761.747559,1542.660034 1750.031494,1586.311401 
	C1734.607544,1643.777222 1722.224854,1701.943115 1713.189331,1760.802490 
	C1706.737915,1802.827759 1701.175171,1844.926025 1699.725464,1887.468018 
	C1699.446411,1895.654175 1697.464844,1902.880859 1691.475708,1908.994141 
	C1668.404053,1932.544312 1645.978638,1956.747437 1622.394287,1979.766479 
	C1610.555298,1991.321289 1597.317749,2001.687744 1583.683105,2011.099976 
	C1564.186646,2024.558838 1542.456787,2032.587891 1518.255249,2032.308838 
	C1508.419678,2032.195557 1500.269653,2028.425781 1493.143799,2021.764282 
	C1482.475830,2011.791504 1476.910522,1999.298584 1474.099976,1985.247803 
	C1470.250977,1966.004639 1472.155273,1946.714966 1474.641357,1927.666016 
	C1480.499268,1882.780640 1490.668579,1838.712524 1503.560913,1795.368530 
	C1519.673828,1741.196899 1536.491455,1687.229858 1553.501465,1633.331177 
	C1575.119507,1564.831299 1597.243286,1496.490967 1619.113892,1428.070679 
	C1620.298340,1424.365234 1621.157837,1420.555908 1622.490479,1415.596924 
	C1616.453003,1415.905884 1611.450317,1415.650391 1606.648193,1416.512329 
	C1596.190063,1418.389526 1585.840698,1420.868042 1575.435181,1423.044434 
	C1532.507812,1432.022705 1489.575439,1440.976074 1446.646240,1449.945923 
	C1422.624023,1454.965210 1398.604736,1459.999268 1374.152100,1465.116943 
	C1361.294189,1500.700806 1348.133179,1535.903809 1335.836548,1571.406128 
	C1309.813965,1646.538208 1286.670532,1722.534302 1268.811646,1800.073364 
	C1256.274170,1854.508301 1246.458618,1909.435913 1242.665771,1965.172729 
	C1241.163208,1987.253540 1239.364746,2009.428223 1241.287842,2031.836182 
	C1243.054565,2052.418701 1244.825439,2072.874756 1249.797485,2092.909668 
	C1260.109863,2134.462646 1278.641479,2171.470703 1311.054810,2200.435547 
	C1330.939941,2218.205811 1354.365356,2227.273682 1381.060791,2227.692383 
	C1402.088745,2228.022217 1421.800049,2222.153320 1441.005859,2214.380859 
	C1471.459106,2202.057373 1499.017700,2184.616943 1525.364502,2165.265137 
	C1585.367310,2121.192627 1639.533569,2070.580811 1690.761230,2016.713623 
	C1693.920532,2013.391479 1697.320679,2010.298462 1701.452271,2006.277954 
	C1703.128052,2014.877075 1704.520874,2022.248657 1706.004883,2029.601807 
	C1713.994141,2069.192383 1728.189087,2106.181152 1751.688354,2139.340820 
	C1774.548584,2171.598633 1803.373657,2196.555176 1840.304077,2211.314941 
	C1873.028564,2224.394043 1907.016968,2227.711914 1942.096191,2224.646729 
	C1968.144409,2222.370850 1993.322021,2216.954590 2018.007935,2208.808838 
	C2061.672363,2194.401611 2101.439697,2172.203613 2139.483643,2146.827881 
	C2194.958496,2109.825439 2246.439697,2067.700928 2296.132324,2023.331543 
	C2302.425049,2017.712891 2308.891113,2012.287964 2316.227783,2005.951782 
	C2317.021973,2008.901489 2317.471191,2010.080688 2317.648193,2011.299316 
	C2323.652100,2052.574707 2336.074463,2091.630127 2358.386719,2127.124756 
	C2395.732422,2186.534668 2448.699707,2220.904053 2519.386230,2225.530029 
	C2545.671875,2227.250244 2571.790527,2224.363525 2597.601318,2218.641357 
	C2646.994873,2207.691406 2691.848877,2186.281250 2734.388672,2159.622314 
	C2805.730713,2114.913818 2869.712158,2060.777344 2932.081299,2004.593994 
	C2936.435059,2000.671997 2937.855225,1996.361328 2937.809326,1990.609253 
	C2937.570312,1960.611450 2937.711914,1930.610840 2937.671387,1900.611206 
	C2937.668213,1898.182495 2937.290283,1895.754272 2936.981934,1892.077026 
	C2932.851562,1895.545288 2929.695312,1897.942017 2926.826660,1900.644043 
	C2902.600586,1923.462158 2878.523926,1946.439941 2854.210938,1969.165039 
	C2828.908936,1992.814575 2802.531006,2015.239990 2774.055664,2034.981079 
	C2736.186035,2061.235107 2695.617432,2080.121582 2646.142090,2077.491211 
M2968.130127,1615.300537 
	C2986.469238,1581.783447 3009.769287,1552.211792 3037.600098,1526.141846 
	C3041.286621,1527.766235 3044.083496,1528.806274 3046.703369,1530.183716 
	C3067.912842,1541.336426 3089.066162,1552.596313 3110.282715,1563.735962 
	C3128.278564,1573.184448 3146.563477,1582.096680 3166.416748,1586.903687 
	C3176.035400,1589.232788 3186.050537,1591.738403 3195.786865,1591.388794 
	C3215.911133,1590.666138 3228.928223,1576.189087 3219.204834,1554.166504 
	C3216.172363,1547.298706 3211.561523,1540.778198 3206.438721,1535.240967 
	C3179.412354,1506.029541 3146.964355,1485.178833 3108.538086,1474.247314 
	C3097.194336,1471.020142 3085.526611,1468.932373 3073.403564,1466.185669 
	C3078.204590,1455.238525 3085.653809,1446.556030 3095.200928,1440.659058 
	C3128.381592,1420.164307 3162.776855,1415.874512 3198.072266,1435.666992 
	C3204.453369,1439.245361 3210.688965,1443.118652 3216.777832,1447.176636 
	C3245.878174,1466.571655 3274.899414,1486.085327 3303.960205,1505.540039 
	C3319.042969,1515.636841 3335.426758,1522.850220 3353.030029,1527.197144 
	C3362.778809,1529.604492 3372.518066,1530.868652 3382.418945,1527.180176 
	C3394.343750,1522.737915 3401.941162,1512.465820 3402.375244,1500.086914 
	C3402.869385,1486.008179 3397.448486,1474.048828 3389.483643,1463.097046 
	C3379.485107,1449.348877 3368.329346,1436.630981 3355.193604,1425.664307 
	C3329.383545,1404.115601 3301.414551,1386.397949 3268.791992,1377.209717 
	C3258.444580,1374.295288 3247.612793,1373.101440 3236.229736,1370.975830 
	C3246.813232,1357.803345 3259.853760,1349.329834 3276.013184,1346.024658 
	C3297.408936,1341.648438 3318.348389,1345.326416 3339.085938,1350.556519 
	C3360.531250,1355.965210 3378.346924,1368.342163 3396.114014,1380.758911 
	C3419.295410,1396.959595 3441.943848,1414.005615 3465.839844,1429.073120 
	C3483.669922,1440.315796 3503.626953,1447.209473 3525.390381,1446.309082 
	C3540.150391,1445.698486 3552.304199,1437.303955 3555.045410,1425.396362 
	C3557.374756,1415.277710 3554.479004,1405.949707 3547.947021,1398.373657 
	C3539.493896,1388.568848 3530.772949,1378.801880 3521.010498,1370.355957 
	C3493.884033,1346.888428 3463.684082,1328.214600 3430.148682,1315.142334 
	C3426.572998,1313.748657 3423.203613,1311.826050 3418.604736,1309.599854 
	C3421.626221,1307.889160 3423.195312,1306.740234 3424.945557,1306.052002 
	C3436.067383,1301.680298 3447.355225,1300.369995 3459.125488,1303.582642 
	C3481.569092,1309.708496 3504.112793,1315.466553 3526.571045,1321.540039 
	C3532.427002,1323.123535 3537.965088,1323.437500 3544.140137,1322.476440 
	C3564.779053,1319.263916 3585.501709,1315.848145 3606.311768,1314.731689 
	C3620.742432,1313.957520 3635.498535,1316.016357 3649.879883,1318.272095 
	C3674.911621,1322.197876 3698.153076,1331.448242 3717.860596,1347.564331 
	C3731.944092,1359.080688 3746.117676,1371.191040 3748.827148,1391.840454 
	C3758.833496,1386.953003 3768.507080,1382.227905 3777.971680,1377.604980 
	C3777.418213,1375.216797 3777.297852,1374.221558 3776.959717,1373.306885 
	C3768.294189,1349.881958 3751.801514,1332.438843 3731.765137,1318.967651 
	C3697.224609,1295.744873 3658.140869,1285.429077 3616.809570,1284.464600 
	C3592.227783,1283.890991 3567.744873,1286.447266 3543.541504,1291.307007 
	C3539.521240,1292.114014 3534.930176,1291.609497 3530.899414,1290.565674 
	C3514.488037,1286.315674 3498.205566,1281.570190 3481.849365,1277.103149 
	C3467.007080,1273.049438 3452.003662,1270.642090 3436.504150,1272.154297 
	C3410.355225,1274.705444 3390.353760,1286.127319 3379.221924,1310.840942 
	C3377.581787,1314.481934 3375.759766,1318.051758 3373.819336,1321.541870 
	C3372.737549,1323.487915 3371.237793,1325.201660 3369.755127,1327.257202 
	C3366.164062,1326.331543 3362.971191,1325.556885 3359.805420,1324.684570 
	C3340.882568,1319.470703 3321.828857,1314.975464 3302.141357,1313.798340 
	C3252.819336,1310.849609 3214.084229,1333.804932 3195.431885,1379.448486 
	C3193.184326,1384.948608 3190.617188,1390.318115 3188.149658,1395.857178 
	C3185.336670,1395.717041 3182.988770,1395.851196 3180.737061,1395.448486 
	C3161.604980,1392.027222 3142.584961,1392.317749 3123.483398,1396.069946 
	C3091.887451,1402.276611 3066.257080,1417.546509 3049.183350,1445.236206 
	C3042.415039,1456.213135 3036.862549,1468.032104 3031.713379,1479.883301 
	C3028.086914,1488.228638 3024.157715,1495.834961 3017.391846,1502.254761 
	C3006.775635,1512.327759 2996.463135,1522.807983 2986.857910,1533.843262 
	C2951.816406,1574.102539 2925.347412,1618.917358 2915.068115,1672.099609 
	C2909.570557,1700.542725 2911.196045,1728.356079 2922.507568,1755.234985 
	C2926.625732,1765.020630 2931.348145,1774.563965 2939.799316,1782.814697 
	C2949.459961,1778.029419 2959.082764,1773.262817 2968.141113,1768.775879 
	C2963.254639,1762.127197 2958.073975,1756.772095 2954.885254,1750.417480 
	C2945.903076,1732.516724 2942.504883,1713.270752 2943.926270,1693.289673 
	C2945.871338,1665.945190 2954.644287,1640.655396 2968.130127,1615.300537 
M1402.398071,1203.416626 
	C1397.489746,1211.595093 1392.581543,1219.773560 1387.527954,1228.194214 
	C1401.641724,1240.185791 1416.329468,1249.851685 1432.388428,1257.258789 
	C1472.845215,1275.919067 1515.384033,1280.529663 1559.027832,1273.755981 
	C1605.530029,1266.538574 1639.855347,1241.727417 1661.499756,1199.608765 
	C1675.537231,1172.292725 1682.337280,1142.971924 1686.151123,1112.825439 
	C1687.772095,1100.012207 1688.871460,1087.105225 1689.506348,1074.206421 
	C1689.833496,1067.562744 1691.024902,1060.619751 1688.236572,1053.488770 
	C1685.072388,1055.424561 1682.595703,1057.069092 1680.002686,1058.503418 
	C1668.968140,1064.607422 1658.264038,1071.475708 1646.770874,1076.551025 
	C1617.893433,1089.303101 1587.889404,1092.600952 1557.214722,1083.798706 
	C1537.333130,1078.093750 1518.446655,1069.816895 1500.386230,1059.707886 
	C1490.902832,1054.399536 1481.443848,1049.048096 1472.316040,1043.908691 
	C1462.143555,1071.355835 1452.785767,1098.293579 1442.186279,1124.733521 
	C1431.411865,1151.609375 1418.187134,1177.373779 1402.398071,1203.416626 
M915.786560,2513.231934 
	C887.369507,2480.881348 850.818909,2465.193604 808.572510,2463.928711 
	C766.314148,2462.663818 723.988464,2463.643799 681.692261,2463.672607 
	C679.471619,2463.674072 677.251282,2463.979736 674.954834,2464.149658 
	C674.954834,2574.869385 674.954834,2684.899902 674.954834,2795.684814 
	C678.840271,2795.684814 682.115479,2795.684814 685.390686,2795.684814 
	C720.359985,2795.684814 755.329651,2795.773193 790.298340,2795.624268 
	C799.234619,2795.586182 808.233093,2795.336670 817.091736,2794.264893 
	C873.512268,2787.437988 914.072754,2758.135010 937.582275,2706.525879 
	C952.321411,2674.169922 956.004272,2639.813721 952.525085,2604.387939 
	C949.221313,2570.747803 938.492188,2540.412598 915.786560,2513.231934 
M2375.286377,2644.027100 
	C2375.408203,2647.682129 2375.633789,2651.337402 2375.635742,2654.992432 
	C2375.660645,2697.971436 2375.652100,2740.950684 2375.652100,2783.929688 
	C2375.652100,2787.516113 2375.651855,2791.102295 2375.651855,2795.092285 
	C2392.642578,2795.092285 2408.745605,2795.092285 2425.069336,2795.092285 
	C2425.069336,2684.416016 2425.069336,2574.335693 2425.069336,2464.321777 
	C2408.315918,2464.321777 2392.184326,2464.321777 2375.651855,2464.321777 
	C2375.651855,2476.285889 2375.652100,2487.582031 2375.652100,2498.878174 
	C2375.652100,2509.872803 2375.652100,2520.867432 2375.652100,2531.862061 
	C2375.652100,2543.189941 2375.696777,2554.517822 2375.639404,2565.845459 
	C2375.582764,2577.005615 2375.904297,2588.189209 2375.415527,2599.096680 
	C2320.135010,2599.096680 2266.284912,2599.096680 2211.420410,2599.096680 
	C2211.420410,2553.759277 2211.420410,2508.962402 2211.420410,2464.320312 
	C2193.909424,2464.320312 2177.427002,2464.320312 2161.067383,2464.320312 
	C2161.067383,2575.049561 2161.067383,2685.105957 2161.067383,2795.686768 
	C2170.110596,2795.686768 2178.410156,2795.723877 2186.709229,2795.676514 
	C2194.882568,2795.629883 2203.055420,2795.497314 2211.681641,2795.397461 
	C2211.681641,2777.194580 2211.681885,2760.229004 2211.681885,2743.263428 
	C2211.681885,2726.604736 2211.679688,2709.946289 2211.682373,2693.287598 
	C2211.685303,2676.464111 2211.692871,2659.640625 2211.698730,2642.350830 
	C2216.481689,2642.350830 2219.772705,2642.350830 2223.063477,2642.350830 
	C2257.713379,2642.350830 2292.363037,2642.314941 2327.012939,2642.367188 
	C2342.662598,2642.390869 2358.312012,2642.590576 2375.286377,2644.027100 
M2964.610352,2505.682373 
	C2966.857178,2505.682373 2969.103760,2505.682373 2971.841553,2505.682373 
	C2971.841553,2491.316162 2971.841553,2477.864258 2971.841553,2464.330078 
	C2898.245605,2464.330078 2825.154297,2464.330078 2752.107910,2464.330078 
	C2749.897217,2500.586426 2750.980957,2787.551758 2753.282471,2795.182129 
	C2826.858154,2795.182129 2900.400879,2795.182129 2975.158691,2795.182129 
	C2975.898926,2781.207031 2980.007324,2768.004150 2980.208496,2754.659668 
	C2978.775391,2754.034668 2978.482422,2753.795410 2978.189209,2753.795166 
	C2920.524414,2753.731934 2862.859619,2753.687500 2805.194824,2753.626465 
	C2804.203125,2753.625488 2803.205078,2753.470459 2802.223877,2753.305420 
	C2801.945312,2753.258301 2801.706299,2752.931641 2801.465820,2752.714600 
	C2801.218750,2752.491455 2800.991943,2752.245850 2800.909180,2752.162842 
	C2800.909180,2716.137451 2800.909180,2680.266846 2800.909180,2643.364258 
	C2855.605957,2643.364258 2909.746582,2643.364258 2963.625000,2643.364258 
	C2963.625000,2628.495117 2963.625000,2614.676758 2963.625000,2600.141357 
	C2909.043945,2600.141357 2855.176270,2600.141357 2801.039062,2600.141357 
	C2801.039062,2568.313721 2801.039062,2537.231201 2801.039062,2505.682373 
	C2855.383301,2505.682373 2909.033936,2505.682373 2964.610352,2505.682373 
M1259.653809,2471.151123 
	C1259.653809,2579.027344 1259.653809,2686.903564 1259.653809,2795.028809 
	C1276.771484,2795.028809 1292.874023,2795.028809 1308.964600,2795.028809 
	C1308.964600,2684.283691 1308.964600,2574.196045 1308.964600,2463.661621 
	C1293.604858,2463.661621 1278.953735,2463.798096 1264.307983,2463.579102 
	C1259.861450,2463.512695 1259.434204,2465.843018 1259.653809,2471.151123 
z"/>
<path fill="#FE9E1E" opacity="1.000000" stroke="none" 
	d="
M5.215024,1319.682861 
	C10.381866,1252.035156 30.040346,1188.721313 61.710663,1128.878784 
	C84.871788,1085.114868 112.976738,1044.826050 145.487625,1007.575500 
	C184.280899,963.126709 229.318939,926.830505 283.876617,903.347229 
	C314.623413,890.112854 346.672455,882.191589 380.190643,879.480408 
	C420.778717,876.197388 460.548920,878.882202 499.202545,892.244995 
	C530.440308,903.044189 558.016602,919.906250 582.167419,942.621704 
	C627.794373,985.536987 655.050720,1038.639404 669.817444,1098.780273 
	C676.963501,1127.884033 681.595886,1157.365356 682.332520,1187.393677 
	C682.691040,1202.009155 683.744934,1216.625244 683.594116,1231.231812 
	C683.257568,1263.811157 679.706970,1296.140991 675.045959,1328.368164 
	C663.374878,1409.062988 638.994141,1486.365845 612.383850,1563.052368 
	C591.452881,1623.371948 569.639404,1683.388306 549.068237,1743.828857 
	C531.812195,1794.529297 517.665344,1846.160522 508.716858,1899.039429 
	C504.728790,1922.606079 501.637756,1946.415161 502.412323,1970.389160 
	C503.600189,2007.154541 513.116150,2041.173340 537.193970,2070.132812 
	C560.225281,2097.833740 589.297424,2114.471436 625.264404,2117.487793 
	C654.352966,2119.927246 682.209900,2113.757324 708.612427,2101.468262 
	C739.994629,2086.861572 767.336304,2066.460938 792.601074,2042.932251 
	C848.273743,1991.085327 891.624817,1930.015991 927.493286,1863.381714 
	C975.568604,1774.070190 1009.932251,1679.635132 1031.247314,1580.513184 
	C1038.648682,1546.094482 1044.087280,1511.303223 1046.301514,1476.098877 
	C1047.530518,1456.556396 1049.214600,1437.013672 1049.572266,1417.450562 
	C1050.483276,1367.651367 1043.555664,1318.718140 1031.268921,1270.546509 
	C1018.571472,1220.764038 1000.694092,1172.819824 978.368347,1126.573608 
	C966.075928,1101.110718 953.053101,1076.001343 940.567932,1050.630005 
	C937.789124,1044.982910 935.902649,1038.898193 933.577209,1033.026123 
	C925.185181,1011.835388 931.317444,994.137451 946.251099,978.223633 
	C960.253845,963.301880 976.080566,950.658386 993.266846,939.727417 
	C1022.210999,921.317932 1051.717163,903.847900 1083.286133,890.237976 
	C1091.793457,886.570374 1100.812012,884.043030 1109.686890,881.285278 
	C1123.022217,877.141541 1133.705933,881.604004 1142.690674,891.721436 
	C1153.928101,904.375732 1161.238892,919.346008 1167.703491,934.673889 
	C1186.924316,980.247620 1199.389526,1027.670288 1206.416260,1076.643433 
	C1212.393921,1118.304199 1213.531372,1160.160645 1211.496582,1202.020020 
	C1208.334106,1267.080811 1199.844604,1331.506836 1186.634399,1395.374268 
	C1171.723389,1467.464722 1151.642334,1538.060303 1127.620361,1607.554077 
	C1106.309204,1669.206055 1082.051880,1729.682983 1053.675659,1788.489258 
	C1027.593872,1842.540894 998.284241,1894.723755 964.780273,1944.505493 
	C938.368286,1983.749634 909.329590,2020.941528 877.574768,2056.078125 
	C841.480347,2096.016113 802.062500,2132.004395 757.114624,2161.779541 
	C712.775696,2191.151123 664.937012,2212.201660 612.346924,2221.251221 
	C584.780823,2225.994629 556.974792,2226.867432 528.937805,2224.509766 
	C493.035095,2221.490234 458.738586,2213.110107 426.561035,2196.979248 
	C377.603058,2172.436035 340.120209,2135.377930 311.774933,2088.933838 
	C285.886932,2046.516113 271.729340,2000.077393 265.621948,1950.929565 
	C262.126556,1922.801025 260.346802,1894.538452 262.602478,1866.373535 
	C264.823761,1838.637817 268.476776,1810.924438 273.239014,1783.503052 
	C283.779663,1722.809570 300.348816,1663.571411 319.932373,1605.231689 
	C335.485809,1558.897949 352.090912,1512.915527 368.385773,1466.832642 
	C390.449554,1404.434692 411.498627,1341.733765 428.647064,1277.754761 
	C439.155396,1238.549316 448.262726,1199.057373 453.249084,1158.801147 
	C458.393585,1117.267944 457.980469,1075.820557 443.947968,1035.660767 
	C436.818695,1015.257446 425.979309,997.057556 408.685272,983.439819 
	C388.525665,967.565735 365.393677,962.657532 340.218384,965.033630 
	C293.968689,969.398682 258.933136,994.335876 228.230301,1026.593506 
	C206.588577,1049.331055 188.383194,1074.745728 173.704376,1102.619385 
	C158.366577,1131.744263 147.974838,1162.472778 143.851669,1195.133179 
	C139.868484,1226.684814 139.952454,1258.183838 148.191925,1289.192139 
	C154.201462,1311.808228 165.127487,1331.665527 181.729446,1348.427124 
	C192.021530,1358.818115 201.888733,1369.657227 211.522034,1380.666870 
	C224.840820,1395.888428 224.940491,1413.112427 218.364548,1431.232178 
	C212.942368,1446.172974 204.244507,1459.128540 194.288651,1471.252808 
	C179.272308,1489.539795 163.162231,1506.665283 142.624954,1519.108765 
	C116.633087,1534.857300 91.151604,1531.459961 68.780182,1513.312500 
	C51.639668,1499.408447 39.676159,1481.435791 29.416700,1462.248535 
	C16.580132,1438.241577 8.479605,1412.715210 5.644099,1385.564819 
	C5.131535,1380.656860 4.090517,1375.804199 2.646736,1370.463013 
	C2.000000,1360.621460 2.000000,1351.243042 2.665259,1340.558350 
	C3.958687,1332.729126 4.586856,1326.206055 5.215024,1319.682861 
z"/>
<path fill="#FE9E1E" opacity="1.000000" stroke="none" 
	d="
M3934.000000,1897.062744 
	C3923.206299,1908.318481 3912.454834,1918.681396 3901.612305,1928.948242 
	C3833.166992,1993.759155 3762.056152,2055.331055 3683.493164,2107.793701 
	C3638.218750,2138.027100 3590.748291,2163.987549 3538.922119,2181.395752 
	C3508.607178,2191.578613 3477.637207,2198.951660 3446.082275,2204.103027 
	C3402.839111,2211.163818 3359.251953,2212.316406 3315.757324,2209.455566 
	C3230.976807,2203.879150 3154.769287,2175.757568 3090.931396,2118.246582 
	C3031.783936,2064.960938 2993.947021,1999.018066 2976.227051,1921.492188 
	C2970.894043,1898.159546 2966.889160,1874.610718 2965.652344,1850.646240 
	C2965.158691,1841.080078 2964.285645,1831.533325 2963.545898,1821.439453 
	C2979.504639,1813.651489 2994.965820,1806.017578 3010.504883,1798.545410 
	C3029.995117,1789.173096 3049.579590,1779.997070 3069.068848,1770.623169 
	C3125.145020,1743.651367 3181.183105,1716.600586 3237.256592,1689.623413 
	C3287.629883,1665.388672 3338.034424,1641.218994 3388.417480,1617.004761 
	C3440.300537,1592.069458 3492.169189,1567.104004 3544.053955,1542.172119 
	C3593.838379,1518.249512 3643.617432,1494.316162 3693.432373,1470.457153 
	C3731.540283,1452.205322 3769.698242,1434.057129 3807.844482,1415.885620 
	C3809.527344,1415.083862 3811.318359,1414.509399 3814.606201,1415.040894 
	C3810.862305,1422.566772 3807.511719,1430.320557 3803.305664,1437.578613 
	C3785.490723,1468.319336 3763.054199,1495.320679 3737.149658,1519.629761 
	C3687.643311,1566.086548 3630.640869,1601.308105 3570.526855,1631.975342 
	C3507.873047,1663.938599 3442.801758,1690.120728 3376.248291,1712.648560 
	C3344.134766,1723.518555 3311.706055,1733.456787 3279.428467,1743.842773 
	C3276.950928,1744.640015 3274.539795,1745.642578 3271.342041,1746.830566 
	C3272.332275,1751.992676 3273.068848,1756.838623 3274.202637,1761.589722 
	C3285.160400,1807.507446 3300.839355,1851.521362 3327.498291,1890.941528 
	C3363.730957,1944.517334 3413.478271,1977.797241 3477.102783,1990.313232 
	C3505.353516,1995.870728 3533.861328,1997.839355 3562.428711,1995.490356 
	C3613.995605,1991.249878 3661.846924,1975.073853 3705.740479,1947.586792 
	C3741.105957,1925.440186 3772.923340,1898.671875 3804.189209,1871.221924 
	C3848.740723,1832.107910 3891.162109,1790.755981 3933.405518,1748.297729 
	C3934.000000,1797.375122 3934.000000,1846.750244 3934.000000,1897.062744 
z"/>
<path fill="#DA291D" opacity="1.000000" stroke="none" 
	d="
M3223.037842,783.036743 
	C3190.696777,760.206726 3158.737061,736.810852 3125.914062,714.695984 
	C3088.393066,689.415649 3050.361328,664.867371 3012.087402,640.737305 
	C2958.611328,607.022949 2903.485352,576.107849 2847.585449,546.612976 
	C2794.039062,518.359924 2739.396484,492.355957 2683.946289,468.031219 
	C2615.712891,438.098633 2546.221191,411.452118 2475.401611,388.349426 
	C2403.663818,364.947327 2330.860352,345.424835 2256.915527,330.255676 
	C2212.049561,321.051819 2167.012695,312.799438 2121.476074,307.727203 
	C2087.875488,303.984558 2054.187500,301.032318 2020.546021,297.654877 
	C1965.460815,292.124603 1910.197510,293.463745 1854.996582,293.919983 
	C1827.143433,294.150146 1799.237793,295.996124 1771.481689,298.503235 
	C1687.119263,306.123413 1603.693970,319.629425 1521.257446,339.335938 
	C1436.738525,359.540222 1354.314331,386.185333 1273.534058,418.076324 
	C1225.904175,436.880005 1179.143066,457.635956 1132.946045,479.734863 
	C1037.089478,525.589111 944.774292,577.805237 855.090637,634.654297 
	C808.164062,664.400269 762.159241,695.600403 714.708496,725.911377 
	C713.678772,725.678955 712.967712,725.006714 712.967712,725.006714 
	C739.445923,697.377991 765.198120,669.006470 792.550720,642.272339 
	C853.019043,583.171143 917.356445,528.484192 985.532471,478.427246 
	C1052.127197,429.531433 1121.725952,385.368042 1194.590332,346.323151 
	C1260.051514,311.245361 1327.561890,280.665802 1397.145508,254.931274 
	C1434.814453,240.999893 1473.359009,229.282532 1511.908691,217.923874 
	C1562.565552,202.997818 1614.186157,191.727936 1666.200439,182.765228 
	C1699.176392,177.083069 1732.529541,173.384048 1765.821777,169.802521 
	C1795.141602,166.648346 1824.611694,164.892242 1855.273804,162.417145 
	C1855.385132,159.628021 1855.644897,156.114639 1855.647339,152.601074 
	C1855.675659,111.279579 1855.840210,69.956825 1855.552246,28.637316 
	C1855.472534,17.189461 1859.074341,8.528211 1869.788818,2.653403 
	C1914.708496,2.000000 1959.416870,2.000000 2005.062744,1.999998 
	C2006.019897,2.332720 2005.924561,2.888105 2006.076050,2.966483 
	C2018.543457,9.416166 2020.562256,20.459658 2020.456543,33.201157 
	C2020.124756,73.196579 2020.334595,113.196495 2020.334595,153.194672 
	C2020.334595,156.823227 2020.334473,160.451782 2020.334473,164.991333 
	C2031.632202,165.993118 2042.462280,166.619293 2053.201660,167.966156 
	C2090.710938,172.670197 2128.299316,176.905289 2165.650879,182.661407 
	C2213.576172,190.047058 2260.997803,200.237152 2307.968994,212.310699 
	C2397.293945,235.270905 2484.410645,264.778137 2569.094971,301.377808 
	C2644.622803,334.020081 2717.728027,371.384521 2788.204346,413.864044 
	C2877.027832,467.402466 2960.867432,527.851379 3039.178955,595.855164 
	C3062.270264,615.907227 3084.595459,636.850586 3107.051514,657.623535 
	C3148.622314,696.078674 3187.148682,737.459412 3223.921875,781.304260 
	C3223.692871,782.322510 3223.037842,783.036682 3223.037842,783.036743 
z"/>
<path fill="#1B1E20" opacity="1.000000" stroke="none" 
	d="
M3362.937256,2800.000000 
	C3356.702393,2798.757812 3351.426270,2797.415283 3346.103760,2796.291016 
	C3325.245361,2791.885986 3306.105225,2783.774902 3290.228760,2769.278564 
	C3270.738770,2751.483154 3260.604736,2728.922363 3257.163818,2702.262207 
	C3274.312744,2702.262207 3290.827148,2702.262207 3307.692627,2702.262207 
	C3309.331299,2707.046631 3310.712891,2712.177002 3312.804688,2716.998779 
	C3321.861328,2737.873535 3337.298828,2751.292236 3359.607178,2756.674316 
	C3382.081543,2762.096191 3404.349609,2762.147949 3426.208252,2754.065674 
	C3445.765869,2746.834229 3455.863770,2731.808105 3457.402100,2711.700195 
	C3458.830566,2693.026611 3452.564209,2676.999023 3436.126953,2666.203125 
	C3424.619629,2658.645020 3411.916504,2653.749023 3398.818359,2649.916748 
	C3380.027588,2644.418213 3360.850586,2640.094971 3342.373779,2633.718750 
	C3329.285889,2629.202148 3316.444824,2623.169922 3304.615967,2615.969482 
	C3278.125488,2599.844727 3268.011963,2574.757568 3269.804932,2544.646973 
	C3272.027832,2507.312500 3291.229004,2481.046875 3325.871094,2468.286621 
	C3367.687500,2452.883789 3409.936035,2453.442871 3450.683838,2473.209961 
	C3477.972412,2486.447510 3493.399658,2509.243896 3499.988525,2538.409668 
	C3500.708252,2541.595703 3501.037598,2544.869873 3501.789795,2549.634766 
	C3484.514160,2549.732422 3467.763916,2549.672607 3451.070801,2549.677002 
	C3450.069092,2546.794922 3449.186768,2544.656494 3448.578125,2542.442627 
	C3442.348389,2519.773438 3427.545166,2505.926270 3404.822510,2500.843262 
	C3386.028076,2496.638428 3367.246582,2496.757324 3349.018066,2503.933838 
	C3325.734619,2513.100586 3314.971191,2539.666504 3325.086670,2562.551025 
	C3329.213379,2571.887695 3336.698730,2577.766602 3345.390381,2582.341309 
	C3360.218994,2590.146484 3376.320312,2594.259521 3392.446777,2598.270996 
	C3417.638916,2604.537842 3442.533691,2611.643555 3465.199951,2624.812500 
	C3486.212891,2637.021484 3501.787354,2653.763916 3506.832275,2678.189697 
	C3513.172119,2708.885010 3509.247314,2737.724121 3488.409912,2762.554932 
	C3474.900635,2778.653320 3457.062744,2788.077148 3437.140137,2793.563721 
	C3428.541504,2795.931885 3419.569824,2796.946533 3410.383789,2799.288086 
	C3394.624756,2800.000000 3379.249756,2800.000000 3362.937256,2800.000000 
z"/>
<path fill="#1B1E20" opacity="1.000000" stroke="none" 
	d="
M1714.937256,2800.000000 
	C1707.373047,2798.562256 1700.723389,2797.221436 1694.123047,2795.670410 
	C1666.621216,2789.207520 1643.382324,2775.977051 1626.976318,2752.398438 
	C1616.747925,2737.698486 1610.887329,2721.218750 1608.438232,2702.774414 
	C1616.765503,2700.341797 1625.322021,2702.024902 1633.714966,2701.716064 
	C1642.001831,2701.411377 1650.308716,2701.649902 1658.892944,2701.649902 
	C1660.686523,2706.755615 1662.180908,2711.441650 1663.964966,2716.014404 
	C1672.313599,2737.413330 1687.877930,2750.677734 1709.964355,2756.461914 
	C1730.980713,2761.966064 1752.029907,2762.060547 1772.854614,2755.802490 
	C1805.169189,2746.091797 1813.885254,2718.205566 1805.776489,2689.148926 
	C1802.659790,2677.980225 1794.439941,2670.585449 1784.892212,2664.661377 
	C1769.724243,2655.249512 1752.814941,2650.284424 1735.730835,2645.906006 
	C1714.813599,2640.545654 1693.836182,2635.423340 1674.181274,2626.152344 
	C1662.703003,2620.738281 1651.970947,2614.338135 1642.700317,2605.415283 
	C1632.253662,2595.360352 1625.147705,2583.472412 1623.023193,2569.325195 
	C1618.884155,2541.764893 1621.755737,2515.684326 1640.964600,2493.318115 
	C1652.173340,2480.266602 1665.989136,2471.215332 1682.026123,2466.259033 
	C1719.620850,2454.640137 1757.326660,2454.458496 1794.189209,2469.353760 
	C1825.535889,2482.020264 1843.946045,2506.012939 1851.540283,2538.607178 
	C1852.278076,2541.773682 1852.177246,2545.135986 1852.524658,2549.075684 
	C1835.629517,2549.075684 1819.432373,2549.075684 1802.526367,2549.075684 
	C1801.937256,2547.511475 1800.971069,2545.468018 1800.389648,2543.320312 
	C1794.397339,2521.179932 1780.552734,2506.852051 1758.172852,2501.327637 
	C1739.774414,2496.786377 1721.246216,2496.462891 1703.226074,2502.791504 
	C1675.321777,2512.591309 1670.680420,2534.317383 1674.678223,2557.001709 
	C1676.482422,2567.238770 1683.525146,2574.575195 1692.472656,2580.002930 
	C1705.733521,2588.047119 1720.440796,2592.216309 1735.214966,2596.080078 
	C1756.736938,2601.708008 1778.448486,2606.677002 1798.862305,2615.825439 
	C1812.884277,2622.109619 1826.080688,2629.607422 1837.204102,2640.535400 
	C1848.742676,2651.870850 1856.357910,2665.123291 1858.823486,2681.140625 
	C1863.174194,2709.404297 1860.453003,2736.246826 1842.093994,2759.658936 
	C1826.337891,2779.751709 1804.698120,2790.006104 1780.504395,2795.639893 
	C1774.067505,2797.138916 1767.399170,2797.645020 1760.418579,2799.303467 
	C1745.291504,2800.000000 1730.583008,2800.000000 1714.937256,2800.000000 
z"/>
<path fill="#FFDFB5" opacity="1.000000" stroke="none" 
	d="
M4.677275,1319.724854 
	C4.586856,1326.206055 3.958687,1332.729126 2.665259,1339.626221 
	C2.000000,1333.938843 2.000000,1327.877563 1.999999,1320.908203 
	C2.713174,1319.922363 3.426350,1319.844604 4.677275,1319.724854 
z"/>
<path fill="#FE9E1E" opacity="1.000000" stroke="none" 
	d="
M2647.037598,2077.573730 
	C2695.617432,2080.121582 2736.186035,2061.235107 2774.055664,2034.981079 
	C2802.531006,2015.239990 2828.908936,1992.814575 2854.210938,1969.165039 
	C2878.523926,1946.439941 2902.600586,1923.462158 2926.826660,1900.644043 
	C2929.695312,1897.942017 2932.851562,1895.545288 2936.981934,1892.077026 
	C2937.290283,1895.754272 2937.668213,1898.182495 2937.671387,1900.611206 
	C2937.711914,1930.610840 2937.570312,1960.611450 2937.809326,1990.609253 
	C2937.855225,1996.361328 2936.435059,2000.671997 2932.081299,2004.593994 
	C2869.712158,2060.777344 2805.730713,2114.913818 2734.388672,2159.622314 
	C2691.848877,2186.281250 2646.994873,2207.691406 2597.601318,2218.641357 
	C2571.790527,2224.363525 2545.671875,2227.250244 2519.386230,2225.530029 
	C2448.699707,2220.904053 2395.732422,2186.534668 2358.386719,2127.124756 
	C2336.074463,2091.630127 2323.652100,2052.574707 2317.648193,2011.299316 
	C2317.471191,2010.080688 2317.021973,2008.901489 2316.227783,2005.951782 
	C2308.891113,2012.287964 2302.425049,2017.712891 2296.132324,2023.331543 
	C2246.439697,2067.700928 2194.958496,2109.825439 2139.483643,2146.827881 
	C2101.439697,2172.203613 2061.672363,2194.401611 2018.007935,2208.808838 
	C1993.322021,2216.954590 1968.144409,2222.370850 1942.096191,2224.646729 
	C1907.016968,2227.711914 1873.028564,2224.394043 1840.304077,2211.314941 
	C1803.373657,2196.555176 1774.548584,2171.598633 1751.688354,2139.340820 
	C1728.189087,2106.181152 1713.994141,2069.192383 1706.004883,2029.601807 
	C1704.520874,2022.248657 1703.128052,2014.877075 1701.452271,2006.277954 
	C1697.320679,2010.298462 1693.920532,2013.391479 1690.761230,2016.713623 
	C1639.533569,2070.580811 1585.367310,2121.192627 1525.364502,2165.265137 
	C1499.017700,2184.616943 1471.459106,2202.057373 1441.005859,2214.380859 
	C1421.800049,2222.153320 1402.088745,2228.022217 1381.060791,2227.692383 
	C1354.365356,2227.273682 1330.939941,2218.205811 1311.054810,2200.435547 
	C1278.641479,2171.470703 1260.109863,2134.462646 1249.797485,2092.909668 
	C1244.825439,2072.874756 1243.054565,2052.418701 1241.287842,2031.836182 
	C1239.364746,2009.428223 1241.163208,1987.253540 1242.665771,1965.172729 
	C1246.458618,1909.435913 1256.274170,1854.508301 1268.811646,1800.073364 
	C1286.670532,1722.534302 1309.813965,1646.538208 1335.836548,1571.406128 
	C1348.133179,1535.903809 1361.294189,1500.700806 1374.152100,1465.116943 
	C1398.604736,1459.999268 1422.624023,1454.965210 1446.646240,1449.945923 
	C1489.575439,1440.976074 1532.507812,1432.022705 1575.435181,1423.044434 
	C1585.840698,1420.868042 1596.190063,1418.389526 1606.648193,1416.512329 
	C1611.450317,1415.650391 1616.453003,1415.905884 1622.490479,1415.596924 
	C1621.157837,1420.555908 1620.298340,1424.365234 1619.113892,1428.070679 
	C1597.243286,1496.490967 1575.119507,1564.831299 1553.501465,1633.331177 
	C1536.491455,1687.229858 1519.673828,1741.196899 1503.560913,1795.368530 
	C1490.668579,1838.712524 1480.499268,1882.780640 1474.641357,1927.666016 
	C1472.155273,1946.714966 1470.250977,1966.004639 1474.099976,1985.247803 
	C1476.910522,1999.298584 1482.475830,2011.791504 1493.143799,2021.764282 
	C1500.269653,2028.425781 1508.419678,2032.195557 1518.255249,2032.308838 
	C1542.456787,2032.587891 1564.186646,2024.558838 1583.683105,2011.099976 
	C1597.317749,2001.687744 1610.555298,1991.321289 1622.394287,1979.766479 
	C1645.978638,1956.747437 1668.404053,1932.544312 1691.475708,1908.994141 
	C1697.464844,1902.880859 1699.446411,1895.654175 1699.725464,1887.468018 
	C1701.175171,1844.926025 1706.737915,1802.827759 1713.189331,1760.802490 
	C1722.224854,1701.943115 1734.607544,1643.777222 1750.031494,1586.311401 
	C1761.747559,1542.660034 1774.000366,1499.098389 1787.847290,1456.086914 
	C1805.575562,1401.019775 1824.428589,1346.286377 1844.108276,1291.883423 
	C1866.743164,1229.311035 1892.117065,1167.776123 1920.197876,1107.437622 
	C1940.137207,1064.592896 1961.384277,1022.358093 1981.801270,979.733093 
	C1985.304443,972.419312 1989.966187,967.876709 1997.882935,964.984741 
	C2072.854492,937.598083 2147.650146,909.731018 2222.544922,882.133301 
	C2227.488281,880.311646 2232.763428,879.022644 2237.992676,878.411438 
	C2254.701904,876.458252 2265.688965,885.849243 2274.634766,898.239380 
	C2286.162109,914.205139 2292.446289,932.572388 2295.760254,951.654480 
	C2298.933105,969.922852 2301.184570,988.477356 2302.035889,1006.989075 
	C2302.983643,1027.591187 2302.805420,1048.344116 2301.520508,1068.931641 
	C2297.410156,1134.799438 2286.278076,1199.452026 2266.690430,1262.611328 
	C2252.064697,1309.770386 2233.626221,1355.362427 2211.446533,1399.401367 
	C2181.588135,1458.686646 2146.426270,1514.785156 2107.829346,1568.757202 
	C2065.593018,1627.817627 2019.950195,1684.128418 1971.396606,1738.097900 
	C1962.946777,1747.490112 1954.704468,1757.072021 1946.116943,1766.335205 
	C1943.207764,1769.473389 1941.882446,1772.708252 1941.621582,1776.973022 
	C1939.879150,1805.462036 1937.749268,1833.927368 1936.057251,1862.418945 
	C1935.151367,1877.674805 1933.955322,1892.999268 1934.485229,1908.237183 
	C1935.713013,1943.544434 1939.374390,1978.522705 1954.182007,2011.317139 
	C1962.940796,2030.715088 1974.528198,2047.938721 1991.600586,2061.045654 
	C2011.890137,2076.622314 2035.113159,2080.072021 2059.692871,2076.910645 
	C2098.024658,2071.979980 2131.276367,2054.882324 2162.278564,2032.869385 
	C2192.439697,2011.453613 2220.267822,1987.170410 2247.329346,1962.022705 
	C2268.051025,1942.766724 2288.337402,1923.041748 2309.070801,1903.798706 
	C2312.328125,1900.775391 2313.583496,1897.916382 2313.809082,1893.587891 
	C2318.071533,1811.780762 2330.988037,1731.234497 2348.996582,1651.402344 
	C2365.031250,1580.320557 2385.038574,1510.375244 2407.156738,1440.970337 
	C2438.594727,1342.320068 2474.503418,1245.355103 2515.922363,1150.476685 
	C2532.289307,1112.985229 2549.913086,1076.034424 2567.390381,1039.038452 
	C2577.479736,1017.680969 2588.527100,996.777649 2598.888184,975.545166 
	C2601.080811,971.051392 2603.963379,968.234985 2608.677979,966.496338 
	C2684.502197,938.533508 2760.267090,910.410339 2836.095947,882.460571 
	C2841.349365,880.524170 2846.930908,879.065430 2852.480225,878.421936 
	C2868.111328,876.609497 2879.083984,884.658508 2888.117920,896.323853 
	C2899.393555,910.884155 2905.151367,927.953491 2909.371094,945.445068 
	C2913.576904,962.878052 2916.182129,980.644714 2916.368164,998.697815 
	C2916.463623,1007.982666 2917.734619,1017.267090 2917.616211,1026.540649 
	C2916.854980,1086.159668 2910.656738,1145.165771 2897.377930,1203.375366 
	C2880.177979,1278.776123 2852.531982,1350.249023 2816.437500,1418.499878 
	C2785.878174,1476.285034 2750.413086,1531.000610 2711.816895,1583.727417 
	C2674.449951,1634.774658 2634.733398,1683.903320 2592.491455,1730.995361 
	C2582.056152,1742.629028 2571.905762,1754.524536 2561.256348,1765.956787 
	C2557.833252,1769.631348 2556.435791,1773.200073 2556.141357,1778.233032 
	C2554.492676,1806.394165 2551.741211,1834.499878 2550.518799,1862.674561 
	C2548.627686,1906.269287 2548.113525,1949.847656 2561.711182,1992.178467 
	C2567.047363,2008.791382 2574.207764,2024.539551 2584.566406,2038.536255 
	C2599.976807,2059.359375 2619.836182,2073.647461 2647.037598,2077.573730 
M1971.956787,1628.248169 
	C1978.289307,1620.995239 1984.728516,1613.832275 1990.937744,1606.475220 
	C2047.220337,1539.788940 2094.973633,1467.433472 2134.326416,1389.576294 
	C2162.586914,1333.664917 2187.004150,1276.130737 2205.101807,1216.067871 
	C2221.488770,1161.681763 2232.561768,1106.446411 2230.299316,1049.225586 
	C2229.565430,1030.659424 2226.066895,1012.871643 2214.895752,997.422485 
	C2204.634033,983.231079 2192.133057,982.167053 2179.413574,993.958557 
	C2168.501953,1004.073914 2160.655518,1016.412964 2153.323730,1029.113647 
	C2130.115234,1069.317871 2112.915771,1112.284058 2096.388184,1155.473022 
	C2067.593018,1230.717773 2044.376953,1307.799072 2024.771606,1385.867554 
	C2006.967041,1456.765503 1991.221436,1528.181885 1974.738770,1599.409302 
	C1972.574585,1608.760986 1971.424438,1618.347412 1968.979126,1628.190308 
	C1969.087280,1628.684204 1969.195435,1629.177979 1969.303467,1629.671753 
	C1969.758911,1629.326172 1970.214355,1628.980591 1971.956787,1628.248169 
M2682.726807,1503.742554 
	C2715.218262,1454.851929 2743.461670,1403.601440 2768.071533,1350.323120 
	C2798.283447,1284.915894 2823.559570,1217.787354 2837.118408,1146.793091 
	C2843.980713,1110.861816 2848.617432,1074.573242 2844.198486,1037.854492 
	C2842.353516,1022.526794 2838.428467,1007.750977 2828.236328,995.513855 
	C2818.825928,984.215454 2808.067139,982.749695 2797.003418,991.841064 
	C2791.679932,996.215454 2786.904297,1001.481262 2782.726074,1006.985107 
	C2765.695801,1029.419434 2753.682617,1054.744507 2742.268066,1080.258545 
	C2710.840576,1150.505493 2685.707764,1223.055298 2664.104492,1296.872314 
	C2632.621826,1404.447754 2607.754395,1513.632446 2584.509766,1623.213745 
	C2584.098389,1625.153687 2584.458252,1627.257324 2584.458252,1631.151611 
	C2620.806152,1590.287476 2652.850830,1548.770386 2682.726807,1503.742554 
z"/>
<path fill="#FEA021" opacity="1.000000" stroke="none" 
	d="
M2967.833984,1615.979736 
	C2954.644287,1640.655396 2945.871338,1665.945190 2943.926270,1693.289673 
	C2942.504883,1713.270752 2945.903076,1732.516724 2954.885254,1750.417480 
	C2958.073975,1756.772095 2963.254639,1762.127197 2968.141113,1768.775879 
	C2959.082764,1773.262817 2949.459961,1778.029419 2939.799316,1782.814697 
	C2931.348145,1774.563965 2926.625732,1765.020630 2922.507568,1755.234985 
	C2911.196045,1728.356079 2909.570557,1700.542725 2915.068115,1672.099609 
	C2925.347412,1618.917358 2951.816406,1574.102539 2986.857910,1533.843262 
	C2996.463135,1522.807983 3006.775635,1512.327759 3017.391846,1502.254761 
	C3024.157715,1495.834961 3028.086914,1488.228638 3031.713379,1479.883301 
	C3036.862549,1468.032104 3042.415039,1456.213135 3049.183350,1445.236206 
	C3066.257080,1417.546509 3091.887451,1402.276611 3123.483398,1396.069946 
	C3142.584961,1392.317749 3161.604980,1392.027222 3180.737061,1395.448486 
	C3182.988770,1395.851196 3185.336670,1395.717041 3188.149658,1395.857178 
	C3190.617188,1390.318115 3193.184326,1384.948608 3195.431885,1379.448486 
	C3214.084229,1333.804932 3252.819336,1310.849609 3302.141357,1313.798340 
	C3321.828857,1314.975464 3340.882568,1319.470703 3359.805420,1324.684570 
	C3362.971191,1325.556885 3366.164062,1326.331543 3369.755127,1327.257202 
	C3371.237793,1325.201660 3372.737549,1323.487915 3373.819336,1321.541870 
	C3375.759766,1318.051758 3377.581787,1314.481934 3379.221924,1310.840942 
	C3390.353760,1286.127319 3410.355225,1274.705444 3436.504150,1272.154297 
	C3452.003662,1270.642090 3467.007080,1273.049438 3481.849365,1277.103149 
	C3498.205566,1281.570190 3514.488037,1286.315674 3530.899414,1290.565674 
	C3534.930176,1291.609497 3539.521240,1292.114014 3543.541504,1291.307007 
	C3567.744873,1286.447266 3592.227783,1283.890991 3616.809570,1284.464600 
	C3658.140869,1285.429077 3697.224609,1295.744873 3731.765137,1318.967651 
	C3751.801514,1332.438843 3768.294189,1349.881958 3776.959717,1373.306885 
	C3777.297852,1374.221558 3777.418213,1375.216797 3777.971680,1377.604980 
	C3768.507080,1382.227905 3758.833496,1386.953003 3748.827148,1391.840454 
	C3746.117676,1371.191040 3731.944092,1359.080688 3717.860596,1347.564331 
	C3698.153076,1331.448242 3674.911621,1322.197876 3649.879883,1318.272095 
	C3635.498535,1316.016357 3620.742432,1313.957520 3606.311768,1314.731689 
	C3585.501709,1315.848145 3564.779053,1319.263916 3544.140137,1322.476440 
	C3537.965088,1323.437500 3532.427002,1323.123535 3526.571045,1321.540039 
	C3504.112793,1315.466553 3481.569092,1309.708496 3459.125488,1303.582642 
	C3447.355225,1300.369995 3436.067383,1301.680298 3424.945557,1306.052002 
	C3423.195312,1306.740234 3421.626221,1307.889160 3418.604736,1309.599854 
	C3423.203613,1311.826050 3426.572998,1313.748657 3430.148682,1315.142334 
	C3463.684082,1328.214600 3493.884033,1346.888428 3521.010498,1370.355957 
	C3530.772949,1378.801880 3539.493896,1388.568848 3547.947021,1398.373657 
	C3554.479004,1405.949707 3557.374756,1415.277710 3555.045410,1425.396362 
	C3552.304199,1437.303955 3540.150391,1445.698486 3525.390381,1446.309082 
	C3503.626953,1447.209473 3483.669922,1440.315796 3465.839844,1429.073120 
	C3441.943848,1414.005615 3419.295410,1396.959595 3396.114014,1380.758911 
	C3378.346924,1368.342163 3360.531250,1355.965210 3339.085938,1350.556519 
	C3318.348389,1345.326416 3297.408936,1341.648438 3276.013184,1346.024658 
	C3259.853760,1349.329834 3246.813232,1357.803345 3236.229736,1370.975830 
	C3247.612793,1373.101440 3258.444580,1374.295288 3268.791992,1377.209717 
	C3301.414551,1386.397949 3329.383545,1404.115601 3355.193604,1425.664307 
	C3368.329346,1436.630981 3379.485107,1449.348877 3389.483643,1463.097046 
	C3397.448486,1474.048828 3402.869385,1486.008179 3402.375244,1500.086914 
	C3401.941162,1512.465820 3394.343750,1522.737915 3382.418945,1527.180176 
	C3372.518066,1530.868652 3362.778809,1529.604492 3353.030029,1527.197144 
	C3335.426758,1522.850220 3319.042969,1515.636841 3303.960205,1505.540039 
	C3274.899414,1486.085327 3245.878174,1466.571655 3216.777832,1447.176636 
	C3210.688965,1443.118652 3204.453369,1439.245361 3198.072266,1435.666992 
	C3162.776855,1415.874512 3128.381592,1420.164307 3095.200928,1440.659058 
	C3085.653809,1446.556030 3078.204590,1455.238525 3073.403564,1466.185669 
	C3085.526611,1468.932373 3097.194336,1471.020142 3108.538086,1474.247314 
	C3146.964355,1485.178833 3179.412354,1506.029541 3206.438721,1535.240967 
	C3211.561523,1540.778198 3216.172363,1547.298706 3219.204834,1554.166504 
	C3228.928223,1576.189087 3215.911133,1590.666138 3195.786865,1591.388794 
	C3186.050537,1591.738403 3176.035400,1589.232788 3166.416748,1586.903687 
	C3146.563477,1582.096680 3128.278564,1573.184448 3110.282715,1563.735962 
	C3089.066162,1552.596313 3067.912842,1541.336426 3046.703369,1530.183716 
	C3044.083496,1528.806274 3041.286621,1527.766235 3037.600098,1526.141846 
	C3009.769287,1552.211792 2986.469238,1581.783447 2967.833984,1615.979736 
M3243.800781,1403.065796 
	C3233.717041,1400.998047 3224.483643,1403.354858 3214.231689,1407.688232 
	C3217.000000,1410.012451 3218.383789,1411.414185 3219.988281,1412.485596 
	C3253.713135,1435.007446 3287.443604,1457.521118 3321.218506,1479.967651 
	C3332.341309,1487.359741 3344.218018,1493.275269 3357.175537,1496.694824 
	C3361.163574,1497.747314 3365.389160,1497.899048 3371.434570,1498.727661 
	C3369.630127,1493.857056 3368.928223,1490.687256 3367.385254,1488.000244 
	C3354.885010,1466.229126 3336.843994,1449.487793 3316.919189,1434.921997 
	C3295.526855,1419.283325 3271.778076,1408.278320 3243.800781,1403.065796 
M3426.296143,1364.736206 
	C3438.809082,1373.509277 3451.313232,1382.294678 3463.837402,1391.051758 
	C3477.763428,1400.789673 3491.956787,1410.066528 3508.623047,1414.527954 
	C3512.555664,1415.580811 3516.685303,1415.898315 3521.818604,1416.731812 
	C3501.277832,1384.153320 3421.644287,1336.847534 3387.871582,1337.197998 
	C3401.006104,1346.562134 3413.102295,1355.186279 3426.296143,1364.736206 
M3150.240723,1548.884521 
	C3161.638916,1552.967651 3172.580322,1558.557495 3185.107422,1560.226318 
	C3184.845947,1558.775024 3184.951416,1557.946289 3184.586426,1557.537842 
	C3156.091064,1525.652466 3120.633545,1506.051025 3078.650391,1498.611328 
	C3072.387207,1497.501465 3065.144287,1496.486694 3057.970215,1500.840820 
	C3063.133057,1503.673340 3067.408447,1506.135864 3071.785400,1508.401367 
	C3097.468506,1521.694946 3123.175537,1534.942261 3150.240723,1548.884521 
z"/>
<path fill="#FE9E1E" opacity="1.000000" stroke="none" 
	d="
M1402.783203,1202.795044 
	C1418.187134,1177.373779 1431.411865,1151.609375 1442.186279,1124.733521 
	C1452.785767,1098.293579 1462.143555,1071.355835 1472.316040,1043.908691 
	C1481.443848,1049.048096 1490.902832,1054.399536 1500.386230,1059.707886 
	C1518.446655,1069.816895 1537.333130,1078.093750 1557.214722,1083.798706 
	C1587.889404,1092.600952 1617.893433,1089.303101 1646.770874,1076.551025 
	C1658.264038,1071.475708 1668.968140,1064.607422 1680.002686,1058.503418 
	C1682.595703,1057.069092 1685.072388,1055.424561 1688.236572,1053.488770 
	C1691.024902,1060.619751 1689.833496,1067.562744 1689.506348,1074.206421 
	C1688.871460,1087.105225 1687.772095,1100.012207 1686.151123,1112.825439 
	C1682.337280,1142.971924 1675.537231,1172.292725 1661.499756,1199.608765 
	C1639.855347,1241.727417 1605.530029,1266.538574 1559.027832,1273.755981 
	C1515.384033,1280.529663 1472.845215,1275.919067 1432.388428,1257.258789 
	C1416.329468,1249.851685 1401.641724,1240.185791 1387.527954,1228.194214 
	C1392.581543,1219.773560 1397.489746,1211.595093 1402.783203,1202.795044 
z"/>
<path fill="#1B1E20" opacity="1.000000" stroke="none" 
	d="
M916.290039,2513.736816 
	C938.492188,2540.412598 949.221313,2570.747803 952.525085,2604.387939 
	C956.004272,2639.813721 952.321411,2674.169922 937.582275,2706.525879 
	C914.072754,2758.135010 873.512268,2787.437988 817.091736,2794.264893 
	C808.233093,2795.336670 799.234619,2795.586182 790.298340,2795.624268 
	C755.329651,2795.773193 720.359985,2795.684814 685.390686,2795.684814 
	C682.115479,2795.684814 678.840271,2795.684814 674.954834,2795.684814 
	C674.954834,2684.899902 674.954834,2574.869385 674.954834,2464.149658 
	C677.251282,2463.979736 679.471619,2463.674072 681.692261,2463.672607 
	C723.988464,2463.643799 766.314148,2462.663818 808.572510,2463.928711 
	C850.818909,2465.193604 887.369507,2480.881348 916.290039,2513.736816 
M850.416992,2520.402588 
	C833.064941,2510.350830 814.337646,2505.594727 794.311218,2505.661621 
	C773.668396,2505.730469 753.025085,2505.652832 732.382141,2505.708740 
	C729.863586,2505.715576 727.346252,2506.153076 724.965515,2506.377930 
	C722.997253,2530.450928 723.850647,2745.824219 726.013855,2753.658936 
	C745.495605,2753.658936 765.116028,2753.773682 784.733887,2753.599365 
	C792.004639,2753.534912 799.284607,2752.964355 806.534363,2752.328857 
	C852.121521,2748.334229 882.543701,2719.244385 894.663452,2676.414307 
	C902.564819,2648.491455 903.887634,2620.249023 897.677490,2591.876221 
	C891.270142,2562.603027 877.523743,2537.901855 850.416992,2520.402588 
z"/>
<path fill="#1B1E20" opacity="1.000000" stroke="none" 
	d="
M2374.624023,2643.368896 
	C2358.312012,2642.590576 2342.662598,2642.390869 2327.012939,2642.367188 
	C2292.363037,2642.314941 2257.713379,2642.350830 2223.063477,2642.350830 
	C2219.772705,2642.350830 2216.481689,2642.350830 2211.698730,2642.350830 
	C2211.692871,2659.640625 2211.685303,2676.464111 2211.682373,2693.287598 
	C2211.679688,2709.946289 2211.681885,2726.604736 2211.681885,2743.263428 
	C2211.681885,2760.229004 2211.681641,2777.194580 2211.681641,2795.397461 
	C2203.055420,2795.497314 2194.882568,2795.629883 2186.709229,2795.676514 
	C2178.410156,2795.723877 2170.110596,2795.686768 2161.067383,2795.686768 
	C2161.067383,2685.105957 2161.067383,2575.049561 2161.067383,2464.320312 
	C2177.427002,2464.320312 2193.909424,2464.320312 2211.420410,2464.320312 
	C2211.420410,2508.962402 2211.420410,2553.759277 2211.420410,2599.096680 
	C2266.284912,2599.096680 2320.135010,2599.096680 2375.415527,2599.096680 
	C2375.904297,2588.189209 2375.582764,2577.005615 2375.639404,2565.845459 
	C2375.696777,2554.517822 2375.652100,2543.189941 2375.652100,2531.862061 
	C2375.652100,2520.867432 2375.652100,2509.872803 2375.652100,2498.878174 
	C2375.652100,2487.582031 2375.651855,2476.285889 2375.651855,2464.321777 
	C2392.184326,2464.321777 2408.315918,2464.321777 2425.069336,2464.321777 
	C2425.069336,2574.335693 2425.069336,2684.416016 2425.069336,2795.092285 
	C2408.745605,2795.092285 2392.642578,2795.092285 2375.651855,2795.092285 
	C2375.651855,2791.102295 2375.652100,2787.516113 2375.652100,2783.929688 
	C2375.652100,2740.950684 2375.660645,2697.971436 2375.635742,2654.992432 
	C2375.633789,2651.337402 2375.408203,2647.682129 2374.624023,2643.368896 
z"/>
<path fill="#1A1D1F" opacity="1.000000" stroke="none" 
	d="
M2963.647461,2505.682373 
	C2909.033936,2505.682373 2855.383301,2505.682373 2801.039062,2505.682373 
	C2801.039062,2537.231201 2801.039062,2568.313721 2801.039062,2600.141357 
	C2855.176270,2600.141357 2909.043945,2600.141357 2963.625000,2600.141357 
	C2963.625000,2614.676758 2963.625000,2628.495117 2963.625000,2643.364258 
	C2909.746582,2643.364258 2855.605957,2643.364258 2800.909180,2643.364258 
	C2800.909180,2680.266846 2800.909180,2716.137451 2800.909180,2752.162842 
	C2800.991943,2752.245850 2801.218750,2752.491455 2801.465820,2752.714600 
	C2801.706299,2752.931641 2801.945312,2753.258301 2802.223877,2753.305420 
	C2803.205078,2753.470459 2804.203125,2753.625488 2805.194824,2753.626465 
	C2862.859619,2753.687500 2920.524414,2753.731934 2978.189209,2753.795166 
	C2978.482422,2753.795410 2978.775391,2754.034668 2980.208496,2754.659668 
	C2980.007324,2768.004150 2975.898926,2781.207031 2975.158691,2795.182129 
	C2900.400879,2795.182129 2826.858154,2795.182129 2753.282471,2795.182129 
	C2750.980957,2787.551758 2749.897217,2500.586426 2752.107910,2464.330078 
	C2825.154297,2464.330078 2898.245605,2464.330078 2971.841553,2464.330078 
	C2971.841553,2477.864258 2971.841553,2491.316162 2971.841553,2505.682373 
	C2969.103760,2505.682373 2966.857178,2505.682373 2963.647461,2505.682373 
z"/>
<path fill="#1B1E20" opacity="1.000000" stroke="none" 
	d="
M1259.654663,2470.163330 
	C1259.434204,2465.843018 1259.861450,2463.512695 1264.307983,2463.579102 
	C1278.953735,2463.798096 1293.604858,2463.661621 1308.964600,2463.661621 
	C1308.964600,2574.196045 1308.964600,2684.283691 1308.964600,2795.028809 
	C1292.874023,2795.028809 1276.771484,2795.028809 1259.653809,2795.028809 
	C1259.653809,2686.903564 1259.653809,2579.027344 1259.654663,2470.163330 
z"/>
<path fill="#DA291D" opacity="1.000000" stroke="none" 
	d="
M714.024475,726.025146 
	C713.946106,726.953247 713.522034,727.535095 712.563477,728.077271 
	C712.028992,728.037598 712.073242,728.105286 712.073242,728.105286 
	C711.869812,727.623169 711.593445,727.155090 711.497131,726.652466 
	C711.455627,726.435913 711.787170,726.147949 712.458496,725.449585 
	C712.967712,725.006714 713.678772,725.678955 714.024475,726.025146 
z"/>
<path fill="#DA291D" opacity="1.000000" stroke="none" 
	d="
M712.004578,728.007324 
	C711.712585,728.382935 711.445007,728.788879 711.177490,729.194824 
	C711.172791,728.634766 711.168152,728.074768 711.618347,727.809998 
	C712.073242,728.105286 712.028992,728.037598 712.004578,728.007324 
z"/>
<path fill="#DA291D" opacity="1.000000" stroke="none" 
	d="
M3224.033936,781.978516 
	C3224.813232,782.303101 3225.251709,782.971619 3225.690186,783.640198 
	C3225.116943,783.712952 3224.543457,783.785767 3223.503906,783.447632 
	C3223.037842,783.036682 3223.692871,782.322510 3224.033936,781.978516 
z"/>
<path fill="#FFFEFE" opacity="1.000000" stroke="none" 
	d="
M2682.312744,1504.333740 
	C2652.850830,1548.770386 2620.806152,1590.287476 2584.458252,1631.151611 
	C2584.458252,1627.257324 2584.098389,1625.153687 2584.509766,1623.213745 
	C2607.754395,1513.632446 2632.621826,1404.447754 2664.104492,1296.872314 
	C2685.707764,1223.055298 2710.840576,1150.505493 2742.268066,1080.258545 
	C2753.682617,1054.744507 2765.695801,1029.419434 2782.726074,1006.985107 
	C2786.904297,1001.481262 2791.679932,996.215454 2797.003418,991.841064 
	C2808.067139,982.749695 2818.825928,984.215454 2828.236328,995.513855 
	C2838.428467,1007.750977 2842.353516,1022.526794 2844.198486,1037.854492 
	C2848.617432,1074.573242 2843.980713,1110.861816 2837.118408,1146.793091 
	C2823.559570,1217.787354 2798.283447,1284.915894 2768.071533,1350.323120 
	C2743.461670,1403.601440 2715.218262,1454.851929 2682.312744,1504.333740 
z"/>
<path fill="#FFFEFE" opacity="1.000000" stroke="none" 
	d="
M1969.804565,1627.825073 
	C1971.424438,1618.347412 1972.574585,1608.760986 1974.738770,1599.409302 
	C1991.221436,1528.181885 2006.967041,1456.765503 2024.771606,1385.867554 
	C2044.376953,1307.799072 2067.593018,1230.717773 2096.388184,1155.473022 
	C2112.915771,1112.284058 2130.115234,1069.317871 2153.323730,1029.113647 
	C2160.655518,1016.412964 2168.501953,1004.073914 2179.413574,993.958557 
	C2192.133057,982.167053 2204.634033,983.231079 2214.895752,997.422485 
	C2226.066895,1012.871643 2229.565430,1030.659424 2230.299316,1049.225586 
	C2232.561768,1106.446411 2221.488770,1161.681763 2205.101807,1216.067871 
	C2187.004150,1276.130737 2162.586914,1333.664917 2134.326416,1389.576294 
	C2094.973633,1467.433472 2047.220337,1539.788940 1990.937744,1606.475220 
	C1984.728516,1613.832275 1978.289307,1620.995239 1971.096924,1628.239136 
	C1970.237183,1628.230103 1969.804565,1627.825073 1969.804565,1627.825073 
z"/>
<path fill="#FFFEFE" opacity="1.000000" stroke="none" 
	d="
M1970.453491,1628.432495 
	C1970.214355,1628.980591 1969.758911,1629.326172 1969.303467,1629.671875 
	C1969.195435,1629.177979 1969.087280,1628.684204 1969.391846,1628.007690 
	C1969.804565,1627.825073 1970.237183,1628.230103 1970.453491,1628.432495 
z"/>
<path fill="#FFFDFA" opacity="1.000000" stroke="none" 
	d="
M3244.618652,1403.309814 
	C3271.778076,1408.278320 3295.526855,1419.283325 3316.919189,1434.921997 
	C3336.843994,1449.487793 3354.885010,1466.229126 3367.385254,1488.000244 
	C3368.928223,1490.687256 3369.630127,1493.857056 3371.434570,1498.727661 
	C3365.389160,1497.899048 3361.163574,1497.747314 3357.175537,1496.694824 
	C3344.218018,1493.275269 3332.341309,1487.359741 3321.218506,1479.967651 
	C3287.443604,1457.521118 3253.713135,1435.007446 3219.988281,1412.485596 
	C3218.383789,1411.414185 3217.000000,1410.012451 3214.231689,1407.688232 
	C3224.483643,1403.354858 3233.717041,1400.998047 3244.618652,1403.309814 
z"/>
<path fill="#FFFBF7" opacity="1.000000" stroke="none" 
	d="
M3425.747559,1364.273315 
	C3413.102295,1355.186279 3401.006104,1346.562134 3387.871582,1337.197998 
	C3421.644287,1336.847534 3501.277832,1384.153320 3521.818604,1416.731812 
	C3516.685303,1415.898315 3512.555664,1415.580811 3508.623047,1414.527954 
	C3491.956787,1410.066528 3477.763428,1400.789673 3463.837402,1391.051758 
	C3451.313232,1382.294678 3438.809082,1373.509277 3425.747559,1364.273315 
z"/>
<path fill="#FFFBF7" opacity="1.000000" stroke="none" 
	d="
M3149.557617,1548.544922 
	C3123.175537,1534.942261 3097.468506,1521.694946 3071.785400,1508.401367 
	C3067.408447,1506.135864 3063.133057,1503.673340 3057.970215,1500.840820 
	C3065.144287,1496.486694 3072.387207,1497.501465 3078.650391,1498.611328 
	C3120.633545,1506.051025 3156.091064,1525.652466 3184.586426,1557.537842 
	C3184.951416,1557.946289 3184.845947,1558.775024 3185.107422,1560.226318 
	C3172.580322,1558.557495 3161.638916,1552.967651 3149.557617,1548.544922 
z"/>
<path fill="#FDFDFD" opacity="1.000000" stroke="none" 
	d="
M851.021423,2520.816406 
	C877.523743,2537.901855 891.270142,2562.603027 897.677490,2591.876221 
	C903.887634,2620.249023 902.564819,2648.491455 894.663452,2676.414307 
	C882.543701,2719.244385 852.121521,2748.334229 806.534363,2752.328857 
	C799.284607,2752.964355 792.004639,2753.534912 784.733887,2753.599365 
	C765.116028,2753.773682 745.495605,2753.658936 726.013855,2753.658936 
	C723.850647,2745.824219 722.997253,2530.450928 724.965515,2506.377930 
	C727.346252,2506.153076 729.863586,2505.715576 732.382141,2505.708740 
	C753.025085,2505.652832 773.668396,2505.730469 794.311218,2505.661621 
	C814.337646,2505.594727 833.064941,2510.350830 851.021423,2520.816406 
z"/>
</svg>